PathFileType        4      (X/Y/Z)      C:\Users\pc\Desktop\IMUTRC\Sujet_06\Sujet_06_velo_100.trc         
DataRate	CameraRate	NumFrames	NumMarkers	Units	OrigDataRate	OrigDataStartFrame	OrigNumFrames
60.0	60.0	4	64	mm	60.0	350	933
Frame#	Time	pHipOrigin			pRightASI			pLeftASI			pRightCSI			pLeftCSI			pRightIschialTub			pLeftIschialTub			pSacrum			pL5SpinalProcess			pL3SpinalProcess			pT12SpinalProcess			pIJ			pT4SpinalProcess			pT8SpinalProcess			pPX			pC7SpinalProcess			pTopOfHead			pRightAuricularis			pLeftAuricularis			pBackOfHead			pRightAcromion			pLeftAcromion			pRightArmLatEpicondyle			pRightArmMedEpicondyle			pLeftArmLatEpicondyle			pLeftArmMedEpicondyle			pRightUlnarStyloid			pRightRadialStyloid			pRightOlecranon			pLeftUlnarStyloid			pLeftRadialStyloid			pLeftOlecranon			pRightTopOfHand			pRightPinky			pRightBallHand			pLeftTopOfHand			pLeftPinky			pLeftBallHand			pRightGreaterTrochanter			pRightKneeLatEpicondyle			pRightKneeMedEpicondyle			pRightPatella			pLeftGreaterTrochanter			pLeftKneeLatEpicondyle			pLeftKneeMedEpicondyle			pLeftPatella			pRightTibialTub			pRightLatMalleolus			pRightMedMalleolus			pLeftTibialTub			pLeftLatMalleolus			pLeftMedMalleolus			pRightHeelFoot			pRightFirstMetatarsal			pRightFifthMetatarsal			pRightPivotFoot			pRightHeelCenter			pRightToe			pLeftHeelFoot			pLeftFirstMetatarsal			pLeftFifthMetatarsal			pLeftPivotFoot			pLeftHeelCenter			pLeftToe			
		X1	Y1	Z1	X2	Y2	Z2	X3	Y3	Z3	X4	Y4	Z4	X5	Y5	Z5	X6	Y6	Z6	X7	Y7	Z7	X8	Y8	Z8	X9	Y9	Z9	X10	Y10	Z10	X11	Y11	Z11	X12	Y12	Z12	X13	Y13	Z13	X14	Y14	Z14	X15	Y15	Z15	X16	Y16	Z16	X17	Y17	Z17	X18	Y18	Z18	X19	Y19	Z19	X20	Y20	Z20	X21	Y21	Z21	X22	Y22	Z22	X23	Y23	Z23	X24	Y24	Z24	X25	Y25	Z25	X26	Y26	Z26	X27	Y27	Z27	X28	Y28	Z28	X29	Y29	Z29	X30	Y30	Z30	X31	Y31	Z31	X32	Y32	Z32	X33	Y33	Z33	X34	Y34	Z34	X35	Y35	Z35	X36	Y36	Z36	X37	Y37	Z37	X38	Y38	Z38	X39	Y39	Z39	X40	Y40	Z40	X41	Y41	Z41	X42	Y42	Z42	X43	Y43	Z43	X44	Y44	Z44	X45	Y45	Z45	X46	Y46	Z46	X47	Y47	Z47	X48	Y48	Z48	X49	Y49	Z49	X50	Y50	Z50	X51	Y51	Z51	X52	Y52	Z52	X53	Y53	Z53	X54	Y54	Z54	X55	Y55	Z55	X56	Y56	Z56	X57	Y57	Z57	X58	Y58	Z58	X59	Y59	Z59	X60	Y60	Z60	X61	Y61	Z61	X62	Y62	Z62	X63	Y63	Z63	X64	Y64	Z64	
350	5.817	0.0	1250.03612	7.654263665882883E-14	32.543050000000015	1328.26706	130.29983000000007	86.90909999999998	1338.73189	-93.54532999999994	1.148580000000013	1389.14172	106.81779000000009	47.09170999999999	1397.94748	-81.80429999999991	-60.491789999999995	1200.64725	33.05353000000008	-37.520230000000005	1205.11394	-61.257509999999925	-56.0251	1271.22101	-12.634359999999914	-23.09919	1361.83108	-1.1485799999999136	27.0554	1469.92506	11.868640000000086	76.31665	1567.17136	22.843950000000085	323.13338	1635.95845	80.78334000000005	199.85263	1720.95324	47.857430000000086	136.55321	1656.76048	34.967830000000085	240.1805	1544.58266	64.32039000000007	244.39195	1763.70588	58.83274000000008	521.83744	1806.07566	60.74703000000005	426.25019	1775.31929	138.59512000000007	415.78537	1783.61457	-5.487649999999942	406.72436	1834.40726	70.70138000000006	211.21080000000003	1744.43529	232.3956900000001	288.42079	1731.54569	-113.96449999999993	356.69739000000004	1486.38802	260.59967000000006	346.48781	1472.86032	199.98025000000007	438.37407	1486.8985	-155.18569999999997	410.93581	1459.71548	-105.41396999999998	543.78804	1309.63457	247.19959000000003	564.84531	1338.34903	209.29650000000004	338.57538000000005	1468.13838	251.53866000000005	640.26863	1334.90329	-156.71714	650.22297	1352.00435	-108.60446	417.69966	1467.88314	-156.20665999999997	714.7986	1287.17348	195.1307	644.48008	1276.07056	235.20332	579.01111	1298.65927	228.43947000000003	805.02581	1349.32433	-80.40049000000002	746.83117	1329.28802	-134.12843	677.27837	1328.26706	-134.25605	6.891470000000018	1224.12929	144.21039000000007	363.33362	1094.85042	123.79122000000002	369.84223	1107.35716	51.30317000000003	378.26514	1140.41069	92.90723000000003	45.56026999999999	1232.42458	-143.6999099999999	255.23963999999998	916.94839	-116.64450999999997	247.58245	911.2055	-43.51835999999997	283.316	939.28186	-72.36043999999997	399.83289	1061.79688	91.75865000000003	214.01843000000002	740.19494	129.40650000000002	218.35751	736.23873	70.57376000000001	280.7636	867.94238	-77.72046999999998	52.06888999999999	575.94824	-120.34548999999997	51.047929999999994	574.03394	-61.257509999999975	158.12095	668.21737	94.05581000000002	313.43427	624.31615	94.94914	296.8437	631.7181	169.22388	325.68578	622.27423	136.17035	193.72688	660.43256	102.73395000000001	397.15287	602.49316	154.16473999999997	-32.41543000000001	540.21469	-86.65385999999997	84.10146	434.80072	-49.388869999999976	81.54905999999998	431.86546	-125.57789999999999	98.65011999999999	418.593	-86.39861999999998	-3.7009700000000105	516.09454	-86.78147999999997	154.5476	366.65174	-86.27099999999999	
351	5.833	0.0	1250.03612	7.654263665882883E-14	32.670670000000015	1328.01182	130.42745000000008	86.90909999999998	1338.85951	-93.41770999999993	1.276200000000013	1389.0141	107.20065000000008	47.09170999999999	1398.0751	-81.54905999999991	-60.491789999999995	1200.64725	33.05353000000008	-37.520230000000005	1205.24156	-61.38512999999992	-55.89748	1271.34863	-12.506739999999915	-22.97157	1361.9587	-0.8933399999999139	27.18302	1469.92506	11.996260000000087	76.57189	1567.17136	22.843950000000085	323.64386	1635.83083	79.76239000000005	200.36311	1720.82562	46.964090000000084	136.80844	1656.76048	34.584970000000084	240.43574	1544.58266	63.937530000000066	244.90243	1763.57826	57.81178000000008	522.22029	1806.45852	58.70512000000005	426.88829	1775.95739	136.93606000000005	416.04061	1783.35933	-7.146709999999941	407.10722	1834.53488	68.78708000000006	211.84890000000001	1745.07339	231.37473000000008	288.16555	1731.29045	-115.11307999999993	357.8459700000001	1487.15374	259.19585000000006	347.1259	1473.49842	198.57644000000005	438.62931	1487.15374	-156.97237999999996	411.44629	1459.8431	-107.07302999999997	544.93662	1310.52791	245.54053000000002	565.86627	1339.36999	207.63744000000003	339.59634000000005	1468.77648	250.13484000000005	641.03435	1335.66901	-158.12095	650.98869	1352.89769	-110.00828	418.08252	1468.01076	-157.86570999999998	715.94718	1288.32206	193.34402	645.62866	1277.09152	233.54427	580.15969	1299.55261	226.78042000000002	805.79153	1350.72815	-81.93192000000002	747.59689	1330.30898	-135.40463	678.04409	1329.1604	-135.53225	5.487650000000018	1221.5769	143.9551500000001	355.80405	1076.60078	123.15312000000003	363.33362	1090.12848	51.04793000000002	373.03273	1122.03344	93.16247000000003	47.602189999999986	1234.97698	-143.57229999999993	271.44735	929.32751	-117.28260999999998	262.7692	922.05318	-44.28407999999998	297.60942	952.17146	-71.97757999999999	396.00429	1045.71679	91.50341000000003	228.43947000000003	714.03288	127.10934000000002	233.41665	710.45953	68.27660000000002	292.88748	878.02435	-77.84808999999998	45.305039999999984	601.72744	-120.21786999999996	44.028839999999995	600.32362	-61.129889999999975	175.86011	640.14101	90.99293000000002	332.83248	602.62078	93.16247	315.34857	609.00177	167.18196	344.82875	600.8341	134.38367	211.59366	633.76002	100.05394000000001	416.67871	583.98829	152.88853999999998	-41.22120000000002	571.48154	-87.03671999999997	68.65946	459.30372	-49.516489999999976	66.23468999999999	456.75133	-125.83313999999999	82.31477999999998	442.20267	-86.52623999999999	-14.038180000000011	545.70234	-87.03671999999997	134.89415	387.19853	-86.39861999999998	
352	5.85	0.0	1250.03612	7.654263665882883E-14	33.053530000000016	1327.75658	130.42745000000008	86.78147999999999	1338.98713	-93.54532999999994	1.659060000000013	1388.75886	107.32827000000009	46.96408999999999	1398.20272	-81.42143999999992	-60.364169999999994	1200.64725	33.05353000000008	-37.775470000000006	1205.36918	-61.257509999999925	-56.0251	1271.34863	-12.379119999999915	-22.97157	1361.9587	-0.7657199999999138	27.31064	1469.79744	11.996260000000087	76.82713	1567.04374	22.461090000000084	324.15434	1635.70321	78.48619000000005	200.87359	1720.82562	45.81551000000009	137.1913	1656.63286	33.94687000000008	240.94622	1544.45504	63.044190000000064	245.41291	1763.45064	56.28034000000008	522.60315	1806.84138	55.76986000000005	427.78163	1776.46786	134.63891000000007	416.29585	1783.1041	-9.443869999999944	407.49008	1834.6625	66.36231000000005	212.48700000000002	1745.71149	230.0985300000001	287.78269	1731.03521	-116.64450999999993	358.8669300000001	1487.66422	257.4091700000001	347.764	1474.0089	196.91738000000007	438.88455	1487.28136	-158.75904999999997	411.95677	1459.97072	-108.73207999999997	545.82996	1311.16601	243.88147000000004	566.88723	1340.00809	205.97839000000002	340.36205000000007	1469.28696	248.47579000000005	641.92768	1336.43473	-159.26953	651.75441	1353.79103	-111.15686	418.46538	1468.01076	-159.65238999999997	716.96814	1289.34302	191.81259	646.64962	1277.98486	231.88521	581.18065	1300.31832	225.12136	806.55725	1352.25959	-82.95288000000001	748.49023	1331.58518	-136.55321	678.93743	1330.18136	-136.68082	4.083830000000018	1219.15212	143.69991000000007	346.23257	1056.05399	122.25979000000002	354.91071	1070.21979	50.28221000000002	366.01364	1100.97617	93.03485000000003	49.13362999999998	1237.27413	-143.44467999999992	288.03793	943.36569	-117.41022999999997	278.97692	934.94279	-44.666939999999975	312.54093	967.10298	-71.72233999999999	389.24044	1027.33953	90.86531000000001	238.64906000000002	687.48796	124.81218000000001	243.88147	684.29746	65.97945000000001	305.9047	890.65871	-77.97570999999999	43.007879999999986	628.91046	-119.83500999999995	41.348819999999996	627.76188	-60.747029999999974	188.23923	612.06465	88.05767000000002	346.23257	578.88349	90.73768999999999	328.11055	584.49877	164.75718	357.97359	577.22444	132.08650999999998	224.1004	606.70461	97.24630000000002	430.20641	562.29292	150.84661999999997	-45.43266000000001	603.00364	-87.16433999999995	58.19463999999999	484.95531	-49.644109999999976	56.02509999999999	482.91339	-125.96075999999996	71.21185999999999	467.47139	-86.78147999999999	-19.65345000000001	575.82062	-87.16433999999997	120.72834999999999	409.65962	-86.52623999999999	
353	5.867	0.0	1250.03612	7.654263665882883E-14	33.94687000000001	1327.8842	130.1722100000001	86.14337999999998	1338.85951	-94.05580999999992	2.5524000000000133	1388.88648	107.32827000000009	46.45360999999999	1398.0751	-81.80429999999991	-60.236549999999994	1200.64725	33.56401000000008	-38.15833000000001	1205.36918	-61.002269999999925	-56.0251	1271.34863	-11.996259999999914	-22.84395	1361.9587	-0.6380999999999138	27.6935	1469.79744	11.613400000000087	77.20999	1567.04374	21.695370000000086	325.04768	1635.32035	76.31665000000005	201.63931	1720.57038	44.15646000000009	137.8294	1656.50524	32.543050000000086	241.4567	1544.1998	61.64037000000006	246.30625	1763.1954	54.238420000000076	523.36887	1806.969	51.43079000000005	429.31307	1776.46786	131.19317000000007	416.42347	1782.84886	-12.761979999999943	408.2558	1834.53488	62.916570000000064	213.50796000000003	1746.34959	228.1842300000001	287.65507	1730.39711	-118.81404999999992	359.8878900000001	1488.04708	255.23964000000004	348.52972	1474.26414	194.74784000000002	439.01217	1486.8985	-160.54572999999996	412.33963	1459.71548	-110.39113999999996	546.46806	1311.29363	242.22241000000002	567.78057	1340.26333	204.57457000000002	341.25539000000003	1469.5422	246.17863000000006	642.82102	1336.94521	-160.16287	652.52013	1354.55675	-112.0502	418.84824	1467.50029	-161.31144999999998	717.86148	1290.10874	190.53639	647.67058	1278.36772	230.48139	582.07399	1300.57356	223.58992	807.32297	1353.79103	-83.59098000000002	749.38357	1332.73376	-137.1913	679.83077	1330.94708	-137.57416	2.6800200000000176	1216.85496	143.4446800000001	333.98106	1032.82719	120.47311000000002	343.80779	1047.63108	48.878390000000024	356.69739	1076.85602	92.14151000000003	49.51648999999998	1239.18843	-143.44467999999992	305.01136	959.44579	-117.79308999999999	296.33322	950.38478	-45.049799999999976	328.11055	984.45927	-71.97757999999999	379.41372	1006.15464	89.33387000000002	243.75385000000003	659.92208	122.38741000000002	249.2415	657.24206	63.554670000000016	320.0705	906.10071	-78.48618999999998	45.177419999999984	656.60396	-118.94166999999996	43.645979999999994	655.83824	-59.853689999999965	194.23736	583.98829	84.99480000000001	352.74118	552.84905	87.54719999999999	334.49154	557.6986	161.56669	364.4822	551.06237	128.89601999999996	230.22615	579.01111	94.18343	437.09788	536.76895	147.65612999999996	-44.41170000000001	634.78097	-86.78147999999996	53.217459999999996	511.75547	-49.516489999999976	51.43078999999999	510.22403	-125.83313999999997	65.59658999999999	493.8887	-86.52623999999999	-19.90869000000001	606.44937	-86.78147999999996	112.43305999999998	433.65214	-86.52623999999999	
